<svg width="24" height="24" viewBox="0 0 24 24" fill="none" xmlns="http://www.w3.org/2000/svg">
<path fill-rule="evenodd" clip-rule="evenodd" d="M3.55572 5.23792C3.55572 4.96177 3.77957 4.73792 4.05572 4.73792H6.18999C10.0357 4.73792 13.191 7.72753 13.191 11.4609V15.2171L15.1314 13.3597C15.3309 13.1688 15.6474 13.1757 15.8384 13.3752C16.0293 13.5747 16.0224 13.8912 15.8229 14.0821L13.0368 16.7491C12.8434 16.9342 12.5386 16.9342 12.3453 16.7491L9.55912 14.0821C9.35964 13.8912 9.35272 13.5747 9.54367 13.3752C9.73462 13.1757 10.0511 13.1688 10.2506 13.3597L12.191 15.2171V11.4609C12.191 8.32056 9.52509 5.73792 6.18999 5.73792H4.05572C3.77957 5.73792 3.55572 5.51406 3.55572 5.23792ZM8.51193 15.7174C8.54779 15.9912 8.35491 16.2422 8.0811 16.2781C6.73222 16.4548 5.63056 16.708 4.87947 17.0002C4.50152 17.1472 4.24071 17.2934 4.08324 17.4242C3.95493 17.5308 3.93523 17.5917 3.93259 17.6038C3.93459 17.6128 3.94476 17.6421 3.99031 17.6938C4.05821 17.7708 4.18113 17.869 4.38022 17.9783C4.77796 18.1966 5.38659 18.4091 6.18148 18.5936C7.76326 18.9609 9.97353 19.1927 12.4324 19.1927C14.8912 19.1927 17.1015 18.9609 18.6833 18.5936C19.4782 18.4091 20.0868 18.1966 20.4845 17.9783C20.6836 17.869 20.8065 17.7708 20.8744 17.6938C20.9206 17.6413 20.9304 17.612 20.9322 17.6035C20.9301 17.5934 20.9168 17.5534 20.8454 17.482C20.7479 17.3847 20.5783 17.2676 20.3169 17.1427C19.7962 16.8938 19.0144 16.662 18.0206 16.474C17.7493 16.4227 17.571 16.1611 17.6223 15.8898C17.6736 15.6185 17.9352 15.4401 18.2065 15.4915C19.2381 15.6866 20.1156 15.9382 20.7481 16.2404C21.0631 16.391 21.3435 16.5663 21.5519 16.7743C21.7616 16.9836 21.9324 17.2625 21.9324 17.6033C21.9324 17.9032 21.7993 18.1568 21.6246 18.355C21.4527 18.55 21.222 18.7142 20.9657 18.8549C20.4526 19.1365 19.7432 19.3742 18.9094 19.5677C17.2338 19.9567 14.9441 20.1927 12.4324 20.1927C9.92065 20.1927 7.63092 19.9567 5.95534 19.5677C5.12155 19.3742 4.41216 19.1365 3.89906 18.8549C3.64272 18.7142 3.41201 18.55 3.24013 18.355C3.06547 18.1568 2.93237 17.9032 2.93237 17.6033C2.93237 17.1954 3.17445 16.879 3.44437 16.6549C3.71883 16.427 4.09091 16.234 4.51689 16.0682C5.37362 15.7349 6.56386 15.4683 7.95123 15.2866C8.22503 15.2507 8.47606 15.4436 8.51193 15.7174ZM20.9326 17.606C20.9325 17.606 20.9323 17.6047 20.9322 17.6035L20.9326 17.606ZM20.9322 17.6035C20.9323 17.6022 20.9325 17.6008 20.9326 17.6008L20.9322 17.6035ZM3.93217 17.6008C3.93222 17.6008 3.93234 17.6015 3.93237 17.6028L3.93217 17.6008ZM3.93232 17.6052C3.93228 17.6058 3.93233 17.6052 3.93232 17.6052V17.6052Z" fill="#3B3B3B"/>
</svg>
