<svg width="24" height="24" viewBox="0 0 24 24" fill="none" xmlns="http://www.w3.org/2000/svg">
<path d="M8.15672 3.92003C7.96329 3.72296 7.64673 3.71999 7.44965 3.91342L3.64965 7.64301C3.54453 7.74618 3.49463 7.88439 3.50031 8.02081C3.49549 8.15049 3.54127 8.27972 3.63262 8.37866L7.36218 12.4181C7.54951 12.621 7.86584 12.6336 8.06873 12.4462C8.27161 12.2589 8.28382 11.9422 8.0965 11.7393L5.14215 8.53948H15.0561C17.4712 8.53948 19.5 10.6412 19.5 13.2703C19.5 15.8995 17.4712 18.0012 15.0561 18.0012L3.99998 18.0012C3.72384 18.0012 3.49998 18.225 3.49998 18.5012C3.49998 18.7773 3.72384 19.0012 3.99998 19.0012L15.0561 19.0012C18.0756 19.0012 20.5 16.3982 20.5 13.2703C20.5 10.1425 18.0756 7.53948 15.0561 7.53948H5.18276L8.15011 4.62711C8.34719 4.43368 8.35015 4.11711 8.15672 3.92003Z" fill="#3B3B3B"/>
</svg>
