<svg width="24" height="24" viewBox="0 0 24 24" fill="none" xmlns="http://www.w3.org/2000/svg">
<mask id="path-1-inside-1_1_4624" fill="white">
<path fill-rule="evenodd" clip-rule="evenodd" d="M3.5 4.5C3.77614 4.5 4 4.72386 4 5V19C4 19.2761 3.77614 19.5 3.5 19.5C3.22386 19.5 3 19.2761 3 19V5C3 4.72386 3.22386 4.5 3.5 4.5ZM20.5 4.5C20.7761 4.5 21 4.72386 21 5V19C21 19.2761 20.7761 19.5 20.5 19.5C20.2239 19.5 20 19.2761 20 19V5C20 4.72386 20.2239 4.5 20.5 4.5ZM6.5 4.5C6.77614 4.5 7 4.72386 7 5V15C7 15.2761 6.77614 15.5 6.5 15.5C6.22386 15.5 6 15.2761 6 15V5C6 4.72386 6.22386 4.5 6.5 4.5ZM9.25 4.5C9.52614 4.5 9.75 4.72386 9.75 5V15C9.75 15.2761 9.52614 15.5 9.25 15.5C8.97386 15.5 8.75 15.2761 8.75 15V5C8.75 4.72386 8.97386 4.5 9.25 4.5ZM12 4.5C12.2761 4.5 12.5 4.72386 12.5 5V15C12.5 15.2761 12.2761 15.5 12 15.5C11.7239 15.5 11.5 15.2761 11.5 15V5C11.5 4.72386 11.7239 4.5 12 4.5ZM14.75 4.5C15.0261 4.5 15.25 4.72386 15.25 5V15C15.25 15.2761 15.0261 15.5 14.75 15.5C14.4739 15.5 14.25 15.2761 14.25 15V5C14.25 4.72386 14.4739 4.5 14.75 4.5ZM17.5 4.5C17.7761 4.5 18 4.72386 18 5V15C18 15.2761 17.7761 15.5 17.5 15.5C17.2239 15.5 17 15.2761 17 15V5C17 4.72386 17.2239 4.5 17.5 4.5Z"/>
</mask>
<path d="M3.5 5.5C3.22386 5.5 3 5.27614 3 5H5C5 4.17157 4.32843 3.5 3.5 3.5V5.5ZM3 5V19H5V5H3ZM3 19C3 18.7239 3.22386 18.5 3.5 18.5V20.5C4.32843 20.5 5 19.8284 5 19H3ZM3.5 18.5C3.77614 18.5 4 18.7239 4 19H2C2 19.8284 2.67157 20.5 3.5 20.5V18.5ZM4 19V5H2V19H4ZM4 5C4 5.27614 3.77614 5.5 3.5 5.5V3.5C2.67157 3.5 2 4.17157 2 5H4ZM20.5 5.5C20.2239 5.5 20 5.27614 20 5H22C22 4.17157 21.3284 3.5 20.5 3.5V5.5ZM20 5V19H22V5H20ZM20 19C20 18.7239 20.2239 18.5 20.5 18.5V20.5C21.3284 20.5 22 19.8284 22 19H20ZM20.5 18.5C20.7761 18.5 21 18.7239 21 19H19C19 19.8284 19.6716 20.5 20.5 20.5V18.5ZM21 19V5H19V19H21ZM21 5C21 5.27614 20.7761 5.5 20.5 5.5V3.5C19.6716 3.5 19 4.17157 19 5H21ZM6.5 5.5C6.22386 5.5 6 5.27614 6 5H8C8 4.17157 7.32843 3.5 6.5 3.5V5.5ZM6 5V15H8V5H6ZM6 15C6 14.7239 6.22386 14.5 6.5 14.5V16.5C7.32843 16.5 8 15.8284 8 15H6ZM6.5 14.5C6.77614 14.5 7 14.7239 7 15H5C5 15.8284 5.67157 16.5 6.5 16.5V14.5ZM7 15V5H5V15H7ZM7 5C7 5.27614 6.77614 5.5 6.5 5.5V3.5C5.67157 3.5 5 4.17157 5 5H7ZM9.25 5.5C8.97386 5.5 8.75 5.27614 8.75 5H10.75C10.75 4.17157 10.0784 3.5 9.25 3.5V5.5ZM8.75 5V15H10.75V5H8.75ZM8.75 15C8.75 14.7239 8.97386 14.5 9.25 14.5V16.5C10.0784 16.5 10.75 15.8284 10.75 15H8.75ZM9.25 14.5C9.52614 14.5 9.75 14.7239 9.75 15H7.75C7.75 15.8284 8.42157 16.5 9.25 16.5V14.5ZM9.75 15V5H7.75V15H9.75ZM9.75 5C9.75 5.27614 9.52614 5.5 9.25 5.5V3.5C8.42157 3.5 7.75 4.17157 7.75 5H9.75ZM12 5.5C11.7239 5.5 11.5 5.27614 11.5 5H13.5C13.5 4.17157 12.8284 3.5 12 3.5V5.5ZM11.5 5V15H13.5V5H11.5ZM11.5 15C11.5 14.7239 11.7239 14.5 12 14.5V16.5C12.8284 16.5 13.5 15.8284 13.5 15H11.5ZM12 14.5C12.2761 14.5 12.5 14.7239 12.5 15H10.5C10.5 15.8284 11.1716 16.5 12 16.5V14.5ZM12.5 15V5H10.5V15H12.5ZM12.5 5C12.5 5.27614 12.2761 5.5 12 5.5V3.5C11.1716 3.5 10.5 4.17157 10.5 5H12.5ZM14.75 5.5C14.4739 5.5 14.25 5.27614 14.25 5H16.25C16.25 4.17157 15.5784 3.5 14.75 3.5V5.5ZM14.25 5V15H16.25V5H14.25ZM14.25 15C14.25 14.7239 14.4739 14.5 14.75 14.5V16.5C15.5784 16.5 16.25 15.8284 16.25 15H14.25ZM14.75 14.5C15.0261 14.5 15.25 14.7239 15.25 15H13.25C13.25 15.8284 13.9216 16.5 14.75 16.5V14.5ZM15.25 15V5H13.25V15H15.25ZM15.25 5C15.25 5.27614 15.0261 5.5 14.75 5.5V3.5C13.9216 3.5 13.25 4.17157 13.25 5H15.25ZM17.5 5.5C17.2239 5.5 17 5.27614 17 5H19C19 4.17157 18.3284 3.5 17.5 3.5V5.5ZM17 5V15H19V5H17ZM17 15C17 14.7239 17.2239 14.5 17.5 14.5V16.5C18.3284 16.5 19 15.8284 19 15H17ZM17.5 14.5C17.7761 14.5 18 14.7239 18 15H16C16 15.8284 16.6716 16.5 17.5 16.5V14.5ZM18 15V5H16V15H18ZM18 5C18 5.27614 17.7761 5.5 17.5 5.5V3.5C16.6716 3.5 16 4.17157 16 5H18Z" fill="#3B3B3B" mask="url(#path-1-inside-1_1_4624)"/>
</svg>
