<svg width="24" height="24" viewBox="0 0 24 24" fill="none" xmlns="http://www.w3.org/2000/svg">
<path fill-rule="evenodd" clip-rule="evenodd" d="M12 3.5C9.74566 3.5 7.58365 4.39553 5.98959 5.98959C4.39553 7.58365 3.5 9.74566 3.5 12C3.5 14.2543 4.39553 16.4163 5.98959 18.0104C7.58365 19.6045 9.74566 20.5 12 20.5C14.2543 20.5 16.4163 19.6045 18.0104 18.0104C19.6045 16.4163 20.5 14.2543 20.5 12C20.5 9.74566 19.6045 7.58365 18.0104 5.98959C16.4163 4.39553 14.2543 3.5 12 3.5ZM5.28249 5.28249C7.06408 3.50089 9.48044 2.5 12 2.5C14.5196 2.5 16.9359 3.50089 18.7175 5.28249C20.4991 7.06408 21.5 9.48044 21.5 12C21.5 14.5196 20.4991 16.9359 18.7175 18.7175C16.9359 20.4991 14.5196 21.5 12 21.5C9.48044 21.5 7.06408 20.4991 5.28249 18.7175C3.50089 16.9359 2.5 14.5196 2.5 12C2.5 9.48044 3.50089 7.06408 5.28249 5.28249ZM15.8412 7.63447C16.043 7.82289 16.0539 8.13928 15.8655 8.34116L8.86553 15.8412C8.67711 16.043 8.36072 16.0539 8.15884 15.8655C7.95697 15.6771 7.94606 15.3607 8.13447 15.1588L15.1345 7.65884C15.3229 7.45697 15.6393 7.44606 15.8412 7.63447ZM8.5 9C8.5 8.44772 8.94772 8 9.5 8C10.0523 8 10.5 8.44772 10.5 9C10.5 9.55228 10.0523 10 9.5 10C8.94772 10 8.5 9.55228 8.5 9ZM13.5 14C13.5 13.4477 13.9477 13 14.5 13C15.0523 13 15.5 13.4477 15.5 14C15.5 14.5523 15.0523 15 14.5 15C13.9477 15 13.5 14.5523 13.5 14Z" fill="#3B3B3B"/>
</svg>
